<svg width="24.000000" height="24.000000" viewBox="0 0 24 24" fill="none" xmlns="http://www.w3.org/2000/svg" xmlns:xlink="http://www.w3.org/1999/xlink">
	<desc>
			Created with Pixso.
	</desc>
	<defs>
		<clipPath id="clip2_10372">
			<rect id="bi:cart-plus-fill" width="24.000000" height="24.000000" transform="translate(-0.500000 0.000000)" fill="white" fill-opacity="0"/>
		</clipPath>
	</defs>
	<rect id="bi:cart-plus-fill" width="24.000000" height="24.000000" transform="translate(-0.500000 0.000000)" fill="#FFFFFF" fill-opacity="0"/>
	<g clip-path="url(#clip2_10372)">
		<path id="Vector" d="M0.25 1.5C0.05 1.5 -0.14 1.57 -0.29 1.71C-0.43 1.86 -0.5 2.05 -0.5 2.25C-0.5 2.44 -0.43 2.63 -0.29 2.78C-0.14 2.92 0.05 3 0.25 3L1.91 3L2.51 5.41L4.76 17.38C4.79 17.55 4.88 17.71 5.02 17.82C5.15 17.93 5.32 17.99 5.5 18L7 18C6.2 18 5.44 18.31 4.87 18.87C4.31 19.44 4 20.2 4 21C4 21.79 4.31 22.55 4.87 23.12C5.44 23.68 6.2 24 7 24C7.79 24 8.55 23.68 9.12 23.12C9.68 22.55 10 21.79 10 21C10 20.2 9.68 19.44 9.12 18.87C8.55 18.31 7.79 18 7 18L17.5 18C16.7 18 15.94 18.31 15.37 18.87C14.81 19.44 14.5 20.2 14.5 21C14.5 21.79 14.81 22.55 15.37 23.12C15.94 23.68 16.7 24 17.5 24C18.29 24 19.05 23.68 19.62 23.12C20.18 22.55 20.5 21.79 20.5 21C20.5 20.2 20.18 19.44 19.62 18.87C19.05 18.31 18.29 18 17.5 18L19 18C19.17 17.99 19.34 17.93 19.47 17.82C19.61 17.71 19.7 17.55 19.73 17.38L21.98 5.38C22 5.27 22 5.16 21.97 5.06C21.94 4.95 21.89 4.85 21.82 4.77C21.75 4.68 21.66 4.61 21.56 4.57C21.46 4.52 21.36 4.5 21.25 4.5L3.83 4.5L3.22 2.06C3.18 1.9 3.09 1.76 2.96 1.65C2.82 1.55 2.66 1.5 2.5 1.5L0.25 1.5ZM8.5 21C8.5 21.39 8.34 21.77 8.06 22.06C7.77 22.34 7.39 22.5 7 22.5C6.6 22.5 6.22 22.34 5.93 22.06C5.65 21.77 5.5 21.39 5.5 21C5.5 20.6 5.65 20.22 5.93 19.93C6.22 19.65 6.6 19.5 7 19.5C7.39 19.5 7.77 19.65 8.06 19.93C8.34 20.22 8.5 20.6 8.5 21ZM19 21C19 21.39 18.84 21.77 18.56 22.06C18.27 22.34 17.89 22.5 17.5 22.5C17.1 22.5 16.72 22.34 16.43 22.06C16.15 21.77 16 21.39 16 21C16 20.6 16.15 20.22 16.43 19.93C16.72 19.65 17.1 19.5 17.5 19.5C17.89 19.5 18.27 19.65 18.56 19.93C18.84 20.22 19 20.6 19 21ZM13 8.25L13 10.5L15.25 10.5C15.44 10.5 15.63 10.57 15.78 10.71C15.92 10.86 16 11.05 16 11.25C16 11.44 15.92 11.63 15.78 11.78C15.63 11.92 15.44 12 15.25 12L13 12L13 14.25C13 14.44 12.92 14.63 12.78 14.78C12.63 14.92 12.44 15 12.25 15C12.05 15 11.86 14.92 11.71 14.78C11.57 14.63 11.5 14.44 11.5 14.25L11.5 12L9.25 12C9.05 12 8.86 11.92 8.71 11.78C8.57 11.63 8.5 11.44 8.5 11.25C8.5 11.05 8.57 10.86 8.71 10.71C8.86 10.57 9.05 10.5 9.25 10.5L11.5 10.5L11.5 8.25C11.5 8.05 11.57 7.86 11.71 7.71C11.86 7.57 12.05 7.5 12.25 7.5C12.44 7.5 12.63 7.57 12.78 7.71C12.92 7.86 13 8.05 13 8.25Z" fill="#FFFFFF" fill-opacity="1.000000" fill-rule="nonzero"/>
	</g>
</svg>
