<svg width="24.000000" height="24.000000" viewBox="0 0 24 24" fill="none" xmlns="http://www.w3.org/2000/svg" xmlns:xlink="http://www.w3.org/1999/xlink">
	<desc>
			Created with Pixso.
	</desc>
	<defs>
		<clipPath id="clip2_15061">
			<rect id="bi:cart-check-fill" width="24.000000" height="24.000000" transform="translate(-0.500000 0.000000)" fill="white" fill-opacity="0"/>
		</clipPath>
	</defs>
	<rect id="bi:cart-check-fill" width="24.000000" height="24.000000" transform="translate(-0.500000 0.000000)" fill="#FFFFFF" fill-opacity="0"/>
	<g clip-path="url(#clip2_15061)">
		<path id="Vector" d="M0.25 1.5C0.05 1.5 -0.14 1.57 -0.29 1.71C-0.43 1.86 -0.5 2.05 -0.5 2.25C-0.5 2.44 -0.43 2.63 -0.29 2.78C-0.14 2.92 0.05 3 0.25 3L1.91 3L2.51 5.41L4.76 17.38C4.79 17.55 4.88 17.71 5.02 17.82C5.15 17.93 5.32 17.99 5.5 18L7 18C6.2 18 5.44 18.31 4.87 18.87C4.31 19.44 4 20.2 4 21C4 21.79 4.31 22.55 4.87 23.12C5.44 23.68 6.2 24 7 24C7.79 24 8.55 23.68 9.12 23.12C9.68 22.55 10 21.79 10 21C10 20.2 9.68 19.44 9.12 18.87C8.55 18.31 7.79 18 7 18L17.5 18C16.7 18 15.94 18.31 15.37 18.87C14.81 19.44 14.5 20.2 14.5 21C14.5 21.79 14.81 22.55 15.37 23.12C15.94 23.68 16.7 24 17.5 24C18.29 24 19.05 23.68 19.62 23.12C20.18 22.55 20.5 21.79 20.5 21C20.5 20.2 20.18 19.44 19.62 18.87C19.05 18.31 18.29 18 17.5 18L19 18C19.17 17.99 19.34 17.93 19.47 17.82C19.61 17.71 19.7 17.55 19.73 17.38L21.98 5.38C22 5.27 22 5.16 21.97 5.06C21.94 4.95 21.89 4.85 21.82 4.77C21.75 4.68 21.66 4.61 21.56 4.57C21.46 4.52 21.36 4.5 21.25 4.5L3.83 4.5L3.22 2.06C3.18 1.9 3.09 1.76 2.96 1.65C2.82 1.55 2.66 1.5 2.5 1.5L0.25 1.5ZM8.5 21C8.5 21.39 8.34 21.77 8.06 22.06C7.77 22.34 7.39 22.5 7 22.5C6.6 22.5 6.22 22.34 5.93 22.06C5.65 21.77 5.5 21.39 5.5 21C5.5 20.6 5.65 20.22 5.93 19.93C6.22 19.65 6.6 19.5 7 19.5C7.39 19.5 7.77 19.65 8.06 19.93C8.34 20.22 8.5 20.6 8.5 21ZM19 21C19 21.39 18.84 21.77 18.56 22.06C18.27 22.34 17.89 22.5 17.5 22.5C17.1 22.5 16.72 22.34 16.43 22.06C16.15 21.77 16 21.39 16 21C16 20.6 16.15 20.22 16.43 19.93C16.72 19.65 17.1 19.5 17.5 19.5C17.89 19.5 18.27 19.65 18.56 19.93C18.84 20.22 19 20.6 19 21ZM16.53 9.53L12.03 14.03C11.96 14.1 11.87 14.15 11.78 14.19C11.69 14.23 11.59 14.25 11.5 14.25C11.4 14.25 11.3 14.23 11.21 14.19C11.12 14.15 11.03 14.1 10.96 14.03L8.71 11.78C8.64 11.71 8.59 11.62 8.55 11.53C8.51 11.44 8.49 11.34 8.49 11.25C8.49 11.15 8.51 11.05 8.55 10.96C8.59 10.87 8.64 10.78 8.71 10.71C8.78 10.64 8.87 10.59 8.96 10.55C9.05 10.51 9.15 10.49 9.25 10.49C9.34 10.49 9.44 10.51 9.53 10.55C9.62 10.59 9.71 10.64 9.78 10.71L11.5 12.43L15.46 8.46C15.53 8.39 15.62 8.34 15.71 8.3C15.8 8.26 15.9 8.24 16 8.24C16.09 8.24 16.19 8.26 16.28 8.3C16.37 8.34 16.46 8.39 16.53 8.46C16.6 8.53 16.65 8.62 16.69 8.71C16.73 8.8 16.75 8.9 16.75 9C16.75 9.09 16.73 9.19 16.69 9.28C16.65 9.37 16.6 9.46 16.53 9.53Z" fill="#FFFFFF" fill-opacity="1.000000" fill-rule="nonzero"/>
	</g>
</svg>
