<svg width="24.000000" height="24.000000" viewBox="0 0 24 24" fill="none" xmlns="http://www.w3.org/2000/svg" xmlns:xlink="http://www.w3.org/1999/xlink">
	<desc>
			Created with Pixso.
	</desc>
	<defs>
		<clipPath id="clip2_15078">
			<rect id="gg:filters" width="24.000000" height="24.000000" fill="white" fill-opacity="0"/>
		</clipPath>
	</defs>
	<rect id="gg:filters" width="24.000000" height="24.000000" fill="#FFFFFF" fill-opacity="0"/>
	<g clip-path="url(#clip2_15078)">
		<path id="Vector" d="M4.7 15.44C5.87 16.26 7.27 16.7 8.7 16.7C9.14 17.9 9.9 18.96 10.9 19.76C11.9 20.56 13.1 21.06 14.37 21.23C15.64 21.39 16.93 21.21 18.1 20.69C19.27 20.18 20.27 19.35 21.01 18.3C21.74 17.25 22.17 16.03 22.26 14.75C22.34 13.47 22.07 12.2 21.48 11.06C20.9 9.93 20.01 8.98 18.91 8.31C17.82 7.65 16.57 7.29 15.29 7.29C14.91 6.26 14.3 5.33 13.49 4.58C12.69 3.83 11.72 3.28 10.66 2.98C9.61 2.67 8.5 2.62 7.42 2.82C6.34 3.03 5.32 3.48 4.45 4.15C3.58 4.82 2.88 5.69 2.41 6.68C1.93 7.67 1.7 8.76 1.72 9.86C1.75 10.96 2.03 12.03 2.55 13C3.06 13.97 3.8 14.8 4.7 15.44ZM5.85 13.8C6.57 14.3 7.41 14.61 8.28 14.68C8.19 13.11 8.63 11.56 9.54 10.27C10.44 8.98 11.75 8.04 13.25 7.59C12.93 6.89 12.45 6.28 11.85 5.8C11.25 5.32 10.55 4.99 9.8 4.82C9.05 4.65 8.28 4.66 7.53 4.84C6.79 5.03 6.09 5.38 5.51 5.87C4.92 6.36 4.45 6.99 4.14 7.69C3.84 8.39 3.69 9.15 3.73 9.92C3.76 10.68 3.97 11.43 4.34 12.11C4.7 12.78 5.22 13.36 5.85 13.8L5.85 13.8ZM18.14 10.19C17.42 9.69 16.58 9.38 15.71 9.31C15.8 10.88 15.36 12.43 14.45 13.72C13.55 15 12.24 15.95 10.74 16.4C11.06 17.1 11.54 17.71 12.14 18.19C12.74 18.67 13.44 19 14.19 19.17C14.94 19.33 15.71 19.33 16.46 19.14C17.2 18.96 17.9 18.61 18.48 18.12C19.07 17.62 19.54 17 19.85 16.3C20.16 15.6 20.3 14.84 20.27 14.07C20.23 13.3 20.02 12.56 19.65 11.88C19.29 11.21 18.77 10.63 18.14 10.19L18.14 10.19Z" fill="#585656" fill-opacity="1.000000" fill-rule="evenodd"/>
	</g>
</svg>
