<svg width="24.000000" height="24.000000" viewBox="0 0 24 24" fill="none" xmlns="http://www.w3.org/2000/svg" xmlns:xlink="http://www.w3.org/1999/xlink">
	<desc>
			Created with Pixso.
	</desc>
	<defs>
		<clipPath id="clip2_15073">
			<rect id="bxs:star" width="24.000000" height="24.000000" fill="white" fill-opacity="0"/>
		</clipPath>
	</defs>
	<rect id="bxs:star" width="24.000000" height="24.000000" fill="#FFFFFF" fill-opacity="0"/>
	<g clip-path="url(#clip2_15073)">
		<path id="Vector" d="M21.94 9.17C21.88 8.99 21.76 8.83 21.61 8.71C21.46 8.59 21.27 8.51 21.07 8.5L15.37 8.04L12.91 2.58C12.83 2.41 12.7 2.26 12.54 2.15C12.38 2.05 12.19 1.99 12 1.99C11.8 1.99 11.61 2.05 11.45 2.15C11.29 2.26 11.16 2.41 11.08 2.58L8.62 8.04L2.92 8.5C2.72 8.51 2.54 8.58 2.39 8.7C2.24 8.82 2.12 8.97 2.05 9.16C1.99 9.34 1.98 9.53 2.02 9.72C2.06 9.91 2.16 10.08 2.3 10.21L6.51 14.32L5.02 20.77C4.97 20.97 4.99 21.17 5.06 21.36C5.13 21.54 5.26 21.7 5.43 21.82C5.59 21.93 5.79 21.99 5.99 22C6.19 22 6.38 21.94 6.55 21.83L12 18.2L17.44 21.83C17.61 21.94 17.81 22 18.02 21.99C18.22 21.99 18.42 21.92 18.58 21.8C18.75 21.68 18.87 21.51 18.94 21.32C19.01 21.13 19.01 20.92 18.96 20.72L17.13 14.32L21.66 10.24C21.96 9.97 22.07 9.55 21.94 9.17Z" fill="#DBDBDB" fill-opacity="1.000000" fill-rule="nonzero"/>
	</g>
</svg>
