<svg width="45" height="39" viewBox="0 0 45 39" fill="none" xmlns="http://www.w3.org/2000/svg">
<path d="M44.3583 19.0605L39.1083 6.8105C38.9735 6.49564 38.7493 6.22728 38.4634 6.03875C38.1775 5.85022 37.8425 5.74981 37.5 5.75H32.25V2.25C32.25 1.78587 32.0656 1.34075 31.7374 1.01256C31.4093 0.684375 30.9641 0.5 30.5 0.5H2.50001V4H28.75V25.973C27.9526 26.436 27.2547 27.0524 26.6967 27.7864C26.1386 28.5205 25.7314 29.3578 25.4985 30.25H14.5015C14.0756 28.6003 13.0626 27.1627 11.6525 26.2064C10.2424 25.2502 8.53193 24.8411 6.84176 25.0558C5.15158 25.2705 3.59772 26.0942 2.47144 27.3726C1.34516 28.651 0.723785 30.2962 0.723785 32C0.723785 33.7038 1.34516 35.349 2.47144 36.6274C3.59772 37.9058 5.15158 38.7295 6.84176 38.9442C8.53193 39.1589 10.2424 38.7498 11.6525 37.7936C13.0626 36.8373 14.0756 35.3997 14.5015 33.75H25.4985C25.8792 35.2519 26.7498 36.584 27.9726 37.5356C29.1954 38.4871 30.7006 39.0037 32.25 39.0037C33.7994 39.0037 35.3046 38.4871 36.5274 37.5356C37.7502 36.584 38.6208 35.2519 39.0015 33.75H42.75C43.2141 33.75 43.6593 33.5656 43.9874 33.2374C44.3156 32.9093 44.5 32.4641 44.5 32V19.75C44.5001 19.5129 44.4519 19.2783 44.3583 19.0605ZM7.75001 35.5C7.05777 35.5 6.38108 35.2947 5.80551 34.9101C5.22994 34.5256 4.78133 33.9789 4.51643 33.3394C4.25152 32.6999 4.18221 31.9961 4.31726 31.3172C4.45231 30.6383 4.78565 30.0146 5.27513 29.5251C5.76462 29.0356 6.38826 28.7023 7.06719 28.5673C7.74612 28.4322 8.44986 28.5015 9.0894 28.7664C9.72894 29.0313 10.2756 29.4799 10.6601 30.0555C11.0447 30.6311 11.25 31.3078 11.25 32C11.2491 32.928 10.88 33.8177 10.2239 34.4739C9.56768 35.13 8.67798 35.4991 7.75001 35.5ZM32.25 9.25H36.345L40.097 18H32.25V9.25ZM32.25 35.5C31.5578 35.5 30.8811 35.2947 30.3055 34.9101C29.7299 34.5256 29.2813 33.9789 29.0164 33.3394C28.7515 32.6999 28.6822 31.9961 28.8173 31.3172C28.9523 30.6383 29.2856 30.0146 29.7751 29.5251C30.2646 29.0356 30.8883 28.7023 31.5672 28.5673C32.2461 28.4322 32.9499 28.5015 33.5894 28.7664C34.2289 29.0313 34.7756 29.4799 35.1601 30.0555C35.5447 30.6311 35.75 31.3078 35.75 32C35.7491 32.928 35.38 33.8177 34.7239 34.4739C34.0677 35.13 33.178 35.4991 32.25 35.5ZM41 30.25H39.0015C38.616 28.751 37.744 27.4223 36.5222 26.4722C35.3003 25.5221 33.7978 25.0043 32.25 25V21.5H41V30.25Z" fill="#0071E4"/>
</svg>
