<svg width="46" height="38" viewBox="0 0 46 38" fill="none" xmlns="http://www.w3.org/2000/svg">
<path d="M34.6667 12V7.33329C34.6667 6.09562 34.175 4.90863 33.2998 4.03346C32.4247 3.15829 31.2377 2.66663 30 2.66663H6.66667C5.42899 2.66663 4.242 3.15829 3.36683 4.03346C2.49167 4.90863 2 6.09562 2 7.33329V21.3333C2 22.571 2.49167 23.758 3.36683 24.6331C4.242 25.5083 5.42899 26 6.66667 26H11.3333M16 35.3333H39.3333C40.571 35.3333 41.758 34.8416 42.6332 33.9665C43.5083 33.0913 44 31.9043 44 30.6666V16.6666C44 15.4289 43.5083 14.242 42.6332 13.3668C41.758 12.4916 40.571 12 39.3333 12H16C14.7623 12 13.5753 12.4916 12.7002 13.3668C11.825 14.242 11.3333 15.4289 11.3333 16.6666V30.6666C11.3333 31.9043 11.825 33.0913 12.7002 33.9665C13.5753 34.8416 14.7623 35.3333 16 35.3333ZM32.3333 23.6666C32.3333 24.9043 31.8417 26.0913 30.9665 26.9665C30.0913 27.8416 28.9043 28.3333 27.6667 28.3333C26.429 28.3333 25.242 27.8416 24.3668 26.9665C23.4917 26.0913 23 24.9043 23 23.6666C23 22.429 23.4917 21.242 24.3668 20.3668C25.242 19.4916 26.429 19 27.6667 19C28.9043 19 30.0913 19.4916 30.9665 20.3668C31.8417 21.242 32.3333 22.429 32.3333 23.6666V23.6666Z" stroke="#0071E4" stroke-width="3.67" stroke-linecap="round" stroke-linejoin="round"/>
</svg>
