<svg width="46" height="37" viewBox="0 0 46 37" fill="none" xmlns="http://www.w3.org/2000/svg">
<path d="M3.5 15.5H8V27.5H5C4.60218 27.5 4.22064 27.658 3.93934 27.9393C3.65804 28.2206 3.5 28.6021 3.5 29C3.5 29.3978 3.65804 29.7793 3.93934 30.0606C4.22064 30.3419 4.60218 30.5 5 30.5H41C41.3978 30.5 41.7794 30.3419 42.0607 30.0606C42.342 29.7793 42.5 29.3978 42.5 29C42.5 28.6021 42.342 28.2206 42.0607 27.9393C41.7794 27.658 41.3978 27.5 41 27.5H38V15.5H42.5C42.826 15.4994 43.1429 15.3926 43.4028 15.1959C43.6626 14.9991 43.8514 14.7231 43.9403 14.4095C44.0293 14.0959 44.0138 13.7619 43.896 13.4579C43.7782 13.154 43.5646 12.8967 43.2875 12.725L23.7875 0.724971C23.5515 0.576858 23.2786 0.498291 23 0.498291C22.7214 0.498291 22.4485 0.576858 22.2125 0.724971L2.7125 12.725C2.43543 12.8967 2.22183 13.154 2.10404 13.4579C1.98624 13.7619 1.97066 14.0959 2.05965 14.4095C2.14864 14.7231 2.33736 14.9991 2.59724 15.1959C2.85713 15.3926 3.17403 15.4994 3.5 15.5ZM11 15.5H17V27.5H11V15.5ZM26 15.5V27.5H20V15.5H26ZM35 27.5H29V15.5H35V27.5ZM23 3.76247L37.1937 12.5H8.80625L23 3.76247ZM45.5 35C45.5 35.3978 45.342 35.7793 45.0607 36.0606C44.7794 36.3419 44.3978 36.5 44 36.5H2C1.60218 36.5 1.22064 36.3419 0.93934 36.0606C0.658035 35.7793 0.5 35.3978 0.5 35C0.5 34.6021 0.658035 34.2206 0.93934 33.9393C1.22064 33.658 1.60218 33.5 2 33.5H44C44.3978 33.5 44.7794 33.658 45.0607 33.9393C45.342 34.2206 45.5 34.6021 45.5 35Z" fill="#0071E4"/>
</svg>
