<svg width="44" height="50" viewBox="0 0 44 50" fill="none" xmlns="http://www.w3.org/2000/svg">
<path d="M24.5776 46.793L28.4743 44.0677C33.4561 40.5802 37.3121 35.7149 39.5697 30.0683C41.8272 24.4217 42.3883 18.2391 41.184 12.2783C41.1245 11.9846 40.9982 11.7085 40.815 11.4714C40.6317 11.2343 40.3963 11.0425 40.127 10.911L21.9013 2L3.67797 10.911C3.40825 11.0423 3.17239 11.2339 2.98868 11.471C2.80497 11.7081 2.67835 11.9844 2.61864 12.2783C1.41459 18.2393 1.97597 24.4221 4.23396 30.0687C6.49195 35.7153 10.3484 40.5805 15.3306 44.0677L19.2273 46.793C20.0115 47.3416 20.9454 47.6359 21.9025 47.6359C22.8595 47.6359 23.7934 47.3416 24.5776 46.793V46.793Z" stroke="#0071E4" stroke-width="3.6" stroke-linecap="round" stroke-linejoin="round"/>
</svg>
