<svg width="48.000000" height="48.000000" viewBox="0 0 48 48" fill="none" xmlns="http://www.w3.org/2000/svg" xmlns:xlink="http://www.w3.org/1999/xlink">
	<desc>
			Created with Pixso.
	</desc>
	<defs>
		<clipPath id="clip974_18978">
			<rect id="carbon:delivery" width="42.000000" height="42.000000" transform="translate(3.000000 3.000000)" fill="white" fill-opacity="0"/>
		</clipPath>
		<clipPath id="clip974_18977">
			<rect id="img" width="48.000000" height="48.000000" fill="white" fill-opacity="0"/>
		</clipPath>
	</defs>
	<g clip-path="url(#clip974_18977)">
		<rect id="carbon:delivery" width="42.000000" height="42.000000" transform="translate(3.000000 3.000000)" fill="#FFFFFF" fill-opacity="0"/>
		<g clip-path="url(#clip974_18978)">
			<path id="Vector" d="M8.25 24L24 24L24 26.62L8.25 26.62L8.25 24ZM5.62 17.43L18.75 17.43L18.75 20.06L5.62 20.06L5.62 17.43Z" fill="#0071E4" fill-opacity="1.000000" fill-rule="nonzero"/>
			<path id="Vector" d="M42.26 24.79L38.33 15.6C38.23 15.37 38.06 15.17 37.84 15.02C37.63 14.88 37.38 14.81 37.12 14.81L33.18 14.81L33.18 12.18C33.18 11.83 33.04 11.5 32.8 11.25C32.55 11.01 32.22 10.87 31.87 10.87L10.87 10.87L10.87 13.5L30.56 13.5L30.56 29.97C29.96 30.32 29.44 30.78 29.02 31.33C28.6 31.89 28.29 32.51 28.12 33.18L19.87 33.18C19.55 31.95 18.79 30.87 17.73 30.15C16.68 29.43 15.39 29.13 14.13 29.29C12.86 29.45 11.69 30.07 10.85 31.02C10 31.98 9.54 33.22 9.54 34.5C9.54 35.77 10 37.01 10.85 37.97C11.69 38.92 12.86 39.54 14.13 39.7C15.39 39.86 16.68 39.56 17.73 38.84C18.79 38.12 19.55 37.04 19.87 35.81L28.12 35.81C28.4 36.93 29.06 37.93 29.97 38.65C30.89 39.36 32.02 39.75 33.18 39.75C34.34 39.75 35.47 39.36 36.39 38.65C37.31 37.93 37.96 36.93 38.25 35.81L41.06 35.81C41.41 35.81 41.74 35.67 41.99 35.42C42.23 35.18 42.37 34.84 42.37 34.5L42.37 25.31C42.37 25.13 42.33 24.95 42.26 24.79ZM14.81 37.12C14.29 37.12 13.78 36.97 13.35 36.68C12.92 36.39 12.58 35.98 12.38 35.5C12.18 35.02 12.13 34.49 12.23 33.98C12.33 33.47 12.58 33.01 12.95 32.64C13.32 32.27 13.79 32.02 14.3 31.92C14.8 31.82 15.33 31.87 15.81 32.07C16.29 32.27 16.7 32.6 16.99 33.04C17.28 33.47 17.43 33.98 17.43 34.5C17.43 35.19 17.16 35.86 16.66 36.35C16.17 36.84 15.5 37.12 14.81 37.12ZM33.18 17.43L36.25 17.43L39.07 24L33.18 24L33.18 17.43ZM33.18 37.12C32.66 37.12 32.16 36.97 31.72 36.68C31.29 36.39 30.96 35.98 30.76 35.5C30.56 35.02 30.51 34.49 30.61 33.98C30.71 33.47 30.96 33.01 31.33 32.64C31.69 32.27 32.16 32.02 32.67 31.92C33.18 31.82 33.71 31.87 34.19 32.07C34.67 32.27 35.08 32.6 35.37 33.04C35.65 33.47 35.81 33.98 35.81 34.5C35.81 35.19 35.53 35.86 35.04 36.35C34.55 36.84 33.88 37.12 33.18 37.12ZM39.75 33.18L38.25 33.18C37.96 32.06 37.3 31.06 36.39 30.35C35.47 29.64 34.34 29.25 33.18 29.25L33.18 26.62L39.75 26.62L39.75 33.18Z" fill="#0071E4" fill-opacity="1.000000" fill-rule="nonzero"/>
		</g>
	</g>
</svg>
