<svg width="48.000000" height="48.000000" viewBox="0 0 48 48" fill="none" xmlns="http://www.w3.org/2000/svg" xmlns:xlink="http://www.w3.org/1999/xlink">
	<desc>
			Created with Pixso.
	</desc>
	<defs>
		<clipPath id="clip974_18991">
			<rect id="ph:bank" width="36.000000" height="36.000000" transform="translate(6.000000 6.000000)" fill="white" fill-opacity="0"/>
		</clipPath>
		<clipPath id="clip974_18990">
			<rect id="img" width="48.000000" height="48.000000" fill="white" fill-opacity="0"/>
		</clipPath>
	</defs>
	<g clip-path="url(#clip974_18990)">
		<rect id="ph:bank" width="36.000000" height="36.000000" transform="translate(6.000000 6.000000)" fill="#FFFFFF" fill-opacity="0"/>
		<g clip-path="url(#clip974_18991)">
			<path id="Vector" d="M9.37 20.62L12.75 20.62L12.75 29.62L10.5 29.62C10.2 29.62 9.91 29.74 9.7 29.95C9.49 30.16 9.37 30.45 9.37 30.75C9.37 31.04 9.49 31.33 9.7 31.54C9.91 31.75 10.2 31.87 10.5 31.87L37.5 31.87C37.79 31.87 38.08 31.75 38.29 31.54C38.5 31.33 38.62 31.04 38.62 30.75C38.62 30.45 38.5 30.16 38.29 29.95C38.08 29.74 37.79 29.62 37.5 29.62L35.25 29.62L35.25 20.62L38.62 20.62C38.86 20.62 39.1 20.54 39.3 20.39C39.49 20.24 39.63 20.04 39.7 19.8C39.77 19.57 39.76 19.32 39.67 19.09C39.58 18.86 39.42 18.67 39.21 18.54L24.59 9.54C24.41 9.43 24.2 9.37 24 9.37C23.79 9.37 23.58 9.43 23.4 9.54L8.78 18.54C8.57 18.67 8.41 18.86 8.32 19.09C8.23 19.32 8.22 19.57 8.29 19.8C8.36 20.04 8.5 20.24 8.69 20.39C8.89 20.54 9.13 20.62 9.37 20.62ZM15 20.62L19.5 20.62L19.5 29.62L15 29.62L15 20.62ZM26.25 20.62L26.25 29.62L21.75 29.62L21.75 20.62L26.25 20.62ZM33 29.62L28.5 29.62L28.5 20.62L33 20.62L33 29.62ZM24 11.82L34.64 18.37L13.35 18.37L24 11.82ZM40.87 35.25C40.87 35.54 40.75 35.83 40.54 36.04C40.33 36.25 40.04 36.37 39.75 36.37L8.25 36.37C7.95 36.37 7.66 36.25 7.45 36.04C7.24 35.83 7.12 35.54 7.12 35.25C7.12 34.95 7.24 34.66 7.45 34.45C7.66 34.24 7.95 34.12 8.25 34.12L39.75 34.12C40.04 34.12 40.33 34.24 40.54 34.45C40.75 34.66 40.87 34.95 40.87 35.25Z" fill="#0071E4" fill-opacity="1.000000" fill-rule="nonzero"/>
		</g>
	</g>
</svg>
