<svg width="16" height="16" viewBox="0 0 16 16" fill="none" xmlns="http://www.w3.org/2000/svg">
<path d="M0.574922 0.575044C0.856213 0.293837 1.23768 0.135864 1.63542 0.135864C2.03317 0.135864 2.41463 0.293837 2.69592 0.575044L7.99992 5.87904L13.3039 0.575044C13.5868 0.301807 13.9657 0.150615 14.359 0.154033C14.7523 0.15745 15.1285 0.315204 15.4066 0.593316C15.6848 0.871428 15.8425 1.24765 15.8459 1.64094C15.8493 2.03424 15.6982 2.41314 15.4249 2.69604L10.1209 8.00004L15.4249 13.304C15.6982 13.5869 15.8493 13.9658 15.8459 14.3591C15.8425 14.7524 15.6848 15.1287 15.4066 15.4068C15.1285 15.6849 14.7523 15.8426 14.359 15.8461C13.9657 15.8495 13.5868 15.6983 13.3039 15.425L7.99992 10.121L2.69592 15.425C2.41302 15.6983 2.03412 15.8495 1.64082 15.8461C1.24752 15.8426 0.871306 15.6849 0.593194 15.4068C0.315082 15.1287 0.157328 14.7524 0.153911 14.3591C0.150493 13.9658 0.301685 13.5869 0.574922 13.304L5.87892 8.00004L0.574922 2.69604C0.293715 2.41475 0.135742 2.03329 0.135742 1.63554C0.135742 1.2378 0.293715 0.856335 0.574922 0.575044Z" fill="#0071E4"/>
</svg>
