<svg width="22" height="22" viewBox="0 0 22 22" fill="none" xmlns="http://www.w3.org/2000/svg">
<path d="M1.10022 1.09998C1.47528 0.725035 1.98389 0.514404 2.51422 0.514404C3.04455 0.514404 3.55317 0.725035 3.92822 1.09998L11.0002 8.17198L18.0722 1.09998C18.4494 0.735661 18.9546 0.534072 19.479 0.538629C20.0034 0.543186 20.505 0.753524 20.8759 1.12434C21.2467 1.49516 21.457 1.99678 21.4616 2.52117C21.4661 3.04557 21.2645 3.55077 20.9002 3.92798L13.8282 11L20.9002 18.072C21.2645 18.4492 21.4661 18.9544 21.4616 19.4788C21.457 20.0032 21.2467 20.5048 20.8759 20.8756C20.505 21.2464 20.0034 21.4568 19.479 21.4613C18.9546 21.4659 18.4494 21.2643 18.0722 20.9L11.0002 13.828L3.92822 20.9C3.55102 21.2643 3.04581 21.4659 2.52142 21.4613C1.99703 21.4568 1.4954 21.2464 1.12458 20.8756C0.753768 20.5048 0.54343 20.0032 0.538873 19.4788C0.534316 18.9544 0.735905 18.4492 1.10022 18.072L8.17222 11L1.10022 3.92798C0.725279 3.55292 0.514648 3.04431 0.514648 2.51398C0.514648 1.98365 0.725279 1.47503 1.10022 1.09998Z" fill="#0071E4"/>
</svg>
