<svg width="26" height="24" viewBox="0 0 26 24" fill="none" xmlns="http://www.w3.org/2000/svg">
<path fill-rule="evenodd" clip-rule="evenodd" d="M0.200195 8.80005C0.200195 8.3757 0.368766 7.96874 0.668824 7.66868C0.968883 7.36862 1.37585 7.20005 1.8002 7.20005H18.293C18.7173 7.20005 19.1243 7.36862 19.4244 7.66868C19.7244 7.96874 19.893 8.3757 19.893 8.80005C19.893 9.2244 19.7244 9.63136 19.4244 9.93142C19.1243 10.2315 18.7173 10.4 18.293 10.4H1.8002C1.37585 10.4 0.968883 10.2315 0.668824 9.93142C0.368766 9.63136 0.200195 9.2244 0.200195 8.80005ZM0.200195 2.40005C0.200195 1.9757 0.368766 1.56874 0.668824 1.26868C0.968883 0.96862 1.37585 0.800049 1.8002 0.800049H24.2002C24.6245 0.800049 25.0315 0.96862 25.3316 1.26868C25.6316 1.56874 25.8002 1.9757 25.8002 2.40005C25.8002 2.8244 25.6316 3.23136 25.3316 3.53142C25.0315 3.83148 24.6245 4.00005 24.2002 4.00005H1.8002C1.37585 4.00005 0.968883 3.83148 0.668824 3.53142C0.368766 3.23136 0.200195 2.8244 0.200195 2.40005ZM0.200195 15.2C0.200195 14.7757 0.368766 14.3687 0.668824 14.0687C0.968883 13.7686 1.37585 13.6 1.8002 13.6H24.2002C24.6245 13.6 25.0315 13.7686 25.3316 14.0687C25.6316 14.3687 25.8002 14.7757 25.8002 15.2C25.8002 15.6244 25.6316 16.0314 25.3316 16.3314C25.0315 16.6315 24.6245 16.8 24.2002 16.8H1.8002C1.37585 16.8 0.968883 16.6315 0.668824 16.3314C0.368766 16.0314 0.200195 15.6244 0.200195 15.2ZM0.200195 21.6C0.200195 21.1757 0.368766 20.7687 0.668824 20.4687C0.968883 20.1686 1.37585 20 1.8002 20H18.293C18.7173 20 19.1243 20.1686 19.4244 20.4687C19.7244 20.7687 19.893 21.1757 19.893 21.6C19.893 22.0244 19.7244 22.4314 19.4244 22.7314C19.1243 23.0315 18.7173 23.2 18.293 23.2H1.8002C1.37585 23.2 0.968883 23.0315 0.668824 22.7314C0.368766 22.4314 0.200195 22.0244 0.200195 21.6Z" fill="#52D116"/>
</svg>
