<svg width="21.225342" height="16.000000" viewBox="0 0 21.2253 16" fill="none" xmlns="http://www.w3.org/2000/svg" xmlns:xlink="http://www.w3.org/1999/xlink">
	<defs/>
	<path id="Vector" d="M19.86 9.03C18.37 10.98 14.79 15 10.61 15C6.43 15 2.84 10.98 1.35 9.03C1.12 8.74 1 8.37 1 8C1 7.62 1.12 7.25 1.35 6.96C2.84 5.01 6.43 1 10.61 1C14.79 1 18.37 5.01 19.86 6.96C20.34 7.58 20.34 8.41 19.86 9.03Z" stroke="#0071E4" stroke-opacity="1.000000" stroke-width="2.000000" stroke-linejoin="round"/>
	<path id="Vector" d="M10.61 11C8.95 11 7.61 9.65 7.61 8C7.61 6.34 8.95 5 10.61 5C12.26 5 13.61 6.34 13.61 8C13.61 9.65 12.26 11 10.61 11Z" stroke="#0071E4" stroke-opacity="1.000000" stroke-width="2.000000" stroke-linejoin="round"/>
</svg>
