<svg width="20.000000" height="19.000000" viewBox="0 0 20 19" fill="none" xmlns="http://www.w3.org/2000/svg" xmlns:xlink="http://www.w3.org/1999/xlink">
	<defs/>
	<path id="Vector" d="M18 6L12.38 6L13.51 2.63C13.71 2.02 13.61 1.35 13.23 0.83C12.86 0.31 12.25 0 11.61 0L10 0C9.7 0 9.42 0.13 9.23 0.35L4.53 6L2 6C0.89 6 0 6.89 0 8L0 17C0 18.1 0.89 19 2 19L15.3 19C15.71 18.99 16.11 18.87 16.44 18.64C16.77 18.41 17.03 18.08 17.17 17.7L19.93 10.35C19.97 10.23 20 10.11 20 10L20 8C20 6.89 19.1 6 18 6ZM2 8L4 8L4 17L2 17L2 8ZM18 9.81L15.3 17L6 17L6 7.36L10.46 2L11.61 2L10.05 6.68C10 6.83 9.98 6.99 10.01 7.15C10.03 7.3 10.09 7.45 10.18 7.58C10.28 7.71 10.4 7.81 10.54 7.89C10.68 7.96 10.84 8 11 8L18 8L18 9.81Z" fill="#0071E4" fill-opacity="1.000000" fill-rule="nonzero"/>
</svg>
