<svg width="19.469971" height="19.000000" viewBox="0 0 19.47 19" fill="none" xmlns="http://www.w3.org/2000/svg" xmlns:xlink="http://www.w3.org/1999/xlink">
	<defs/>
	<path id="Vector" d="M8.46 9L8.46 19L6.46 19L6.46 11L4.46 11L4.46 9L8.46 9ZM16.46 11L16.46 17C16.46 18.11 15.58 19 14.47 19L12.47 19C11.93 19 11.43 18.78 11.05 18.41C10.68 18.03 10.47 17.53 10.47 17L10.47 11C10.47 10.46 10.68 9.96 11.05 9.58C11.43 9.21 11.93 9 12.47 9L14.47 9C15 9 15.5 9.21 15.88 9.58C16.25 9.96 16.46 10.46 16.46 11ZM12.47 11L12.47 17L14.47 17L14.47 11L12.47 11ZM9.96 0C12.62 0 15.02 1 16.87 2.59L19.46 0L19.46 7L12.47 7L15.09 4.38C13.7 3.21 11.92 2.5 9.96 2.5C6.42 2.5 3.41 4.81 2.37 8L0 7.21C1.38 3.03 5.32 0 9.96 0Z" fill="#0071E4" fill-opacity="1.000000" fill-rule="nonzero"/>
</svg>
