<svg width="8.815430" height="14.385986" viewBox="0 0 8.81543 14.386" fill="none" xmlns="http://www.w3.org/2000/svg" xmlns:xlink="http://www.w3.org/1999/xlink">
	<defs/>
	<path id="Vector" d="M4.9 0C4.32 0 3.77 0.52 3.67 1.28C3.57 2.08 4.03 2.76 4.64 2.83C5.25 2.91 5.87 2.37 5.98 1.56C6.09 0.75 5.62 0.08 5.01 0C4.98 0 4.94 0 4.9 0ZM3.7 2.99C2.52 3.18 1.35 4.3 0.77 5.05C0.41 6.09 0.31 7.13 0.12 8.17L1 8.15C1.21 7.36 1.26 6.53 1.66 5.79C2.12 5.54 2.5 5.15 2.86 4.74C2.66 5.77 2.42 7 2.45 7.92C3.38 10.13 5.44 12.31 6.6 14.37L7.54 13.61C6.64 11.87 5.74 10.28 4.59 8.6C4.65 8.38 5.94 3.49 5.46 3.23C4.83 3.51 4.19 3.42 3.7 2.99ZM5.95 4.82C5.85 5.37 5.79 5.92 5.64 6.47C5.78 6.64 5.87 6.8 6.09 6.95C6.9 7.42 7.71 7.77 8.52 8.09L8.81 7.16L6.39 5.98C6.25 5.59 6.14 5.2 5.95 4.82ZM2.25 8.88C2.09 9.66 1.94 10.45 1.89 11.27C1.39 12.26 0.77 12.88 0 13.66L0.93 14.38C1.65 13.6 2.49 12.91 3.02 12.07L3.45 10.74C2.96 10.15 2.57 9.53 2.25 8.88Z" fill="#585656" fill-opacity="1.000000" fill-rule="nonzero"/>
</svg>
