<svg width="40" height="40" viewBox="0 0 40 40" fill="none" xmlns="http://www.w3.org/2000/svg">
<path d="M8.494 1.14284C5.45235 1.14284 2.76844 2.51991 1.14307 4.62392V13.9988C2.76844 16.1012 5.45235 17.4783 8.494 17.4783C9.96582 17.4783 11.3511 17.1499 12.5779 16.5798V35.4472H17.4785V9.31054C17.4785 4.80034 13.4567 1.14284 8.494 1.14284Z" stroke="#CCCCCC" stroke-width="2.1" stroke-miterlimit="10" stroke-linecap="round" stroke-linejoin="round"/>
<path d="M10.1274 14.2112C11.48 14.2112 12.5778 15.3089 12.5778 16.6615" stroke="#CCCCCC" stroke-width="2.1" stroke-miterlimit="10" stroke-linecap="round" stroke-linejoin="round"/>
<path d="M15.8447 38.7143H14.2112C13.3095 38.7143 12.5776 37.9825 12.5776 37.0807V35.4472H17.4783V37.0807C17.4783 37.9825 16.7464 38.7143 15.8447 38.7143Z" stroke="#CCCCCC" stroke-width="2.1" stroke-miterlimit="10" stroke-linecap="round" stroke-linejoin="round"/>
<path d="M5.63531 7.67699C4.95903 7.67699 4.41016 8.22586 4.41016 8.90214C4.41016 9.57843 4.95903 10.1273 5.63531 10.1273C6.3116 10.1273 6.86047 9.57843 6.86047 8.90214C6.86047 8.22586 6.3116 7.67699 5.63531 7.67699Z" fill="#CCCCCC"/>
<path d="M10.9409 4.91958C12.2134 5.47988 13.2279 6.46327 13.7718 7.67536" stroke="#CCCCCC" stroke-width="2.1" stroke-miterlimit="10" stroke-linecap="round" stroke-linejoin="round"/>
<path d="M31.3634 1.14284C34.405 1.14284 37.0889 2.51991 38.7143 4.62392V13.9988C37.0889 16.1012 34.405 17.4783 31.3634 17.4783C29.8916 17.4783 28.5063 17.1499 27.2795 16.5798V35.4472H22.3789V9.31054C22.3789 4.80034 26.4007 1.14284 31.3634 1.14284Z" stroke="#CCCCCC" stroke-width="2.1" stroke-miterlimit="10" stroke-linecap="round" stroke-linejoin="round"/>
<path d="M29.7301 14.2112C28.3775 14.2112 27.2798 15.3089 27.2798 16.6615" stroke="#CCCCCC" stroke-width="2.1" stroke-miterlimit="10" stroke-linecap="round" stroke-linejoin="round"/>
<path d="M24.0124 38.7143H25.646C26.5477 38.7143 27.2795 37.9825 27.2795 37.0807V35.4472H22.3789V37.0807C22.3789 37.9825 23.1107 38.7143 24.0124 38.7143Z" stroke="#CCCCCC" stroke-width="2.1" stroke-miterlimit="10" stroke-linecap="round" stroke-linejoin="round"/>
<path d="M28.9164 4.91958C27.6438 5.47988 26.6294 6.46327 26.0854 7.67536" stroke="#CCCCCC" stroke-width="2.1" stroke-miterlimit="10" stroke-linecap="round" stroke-linejoin="round"/>
<path d="M34.2222 7.67699C33.5459 7.67699 32.9971 8.22586 32.9971 8.90214C32.9971 9.57843 33.5459 10.1273 34.2222 10.1273C34.8985 10.1273 35.4474 9.57843 35.4474 8.90214C35.4474 8.22586 34.8985 7.67699 34.2222 7.67699Z" fill="#CCCCCC"/>
</svg>

