<svg width="24.000000" height="28.000000" viewBox="0 0 24 28" fill="none" xmlns="http://www.w3.org/2000/svg" xmlns:xlink="http://www.w3.org/1999/xlink">
	<defs/>
	<path id="Vector" d="M23.14 21.66C22.73 22.63 22.23 23.54 21.63 24.4C20.84 25.54 20.19 26.33 19.69 26.77C18.91 27.49 18.08 27.86 17.19 27.88C16.55 27.88 15.78 27.7 14.88 27.33C13.98 26.95 13.15 26.77 12.4 26.77C11.6 26.77 10.75 26.95 9.84 27.33C8.93 27.7 8.2 27.89 7.63 27.91C6.78 27.95 5.93 27.57 5.08 26.77C4.54 26.3 3.86 25.48 3.05 24.32C2.17 23.08 1.46 21.64 0.9 20.01C0.3 18.24 0 16.53 0 14.87C0 12.98 0.4 11.34 1.21 9.97C1.83 8.89 2.71 7.99 3.77 7.36C4.81 6.73 6.01 6.39 7.23 6.37C7.91 6.37 8.8 6.59 9.9 7C11 7.42 11.71 7.63 12.02 7.63C12.25 7.63 13.04 7.38 14.37 6.89C15.63 6.43 16.7 6.24 17.57 6.32C19.93 6.51 21.7 7.45 22.88 9.14C20.77 10.43 19.73 12.24 19.75 14.56C19.77 16.37 20.42 17.87 21.69 19.06C22.26 19.61 22.92 20.04 23.64 20.35C23.48 20.81 23.31 21.24 23.14 21.66ZM17.72 0.16C17.72 1.58 17.21 2.9 16.19 4.12C14.96 5.58 13.46 6.42 11.85 6.29C11.82 6.11 11.81 5.93 11.81 5.75C11.81 4.39 12.4 2.94 13.44 1.75C13.96 1.14 14.63 0.64 15.43 0.24C16.23 -0.15 16.98 -0.37 17.7 -0.4C17.72 -0.21 17.72 -0.03 17.72 0.16Z" fill="#0071E4" fill-opacity="1.000000" fill-rule="nonzero"/>
</svg>
