<svg width="48.000000" height="48.000000" viewBox="0 0 48 48" fill="none" xmlns="http://www.w3.org/2000/svg" xmlns:xlink="http://www.w3.org/1999/xlink">
	<desc>
			Created with Pixso.
	</desc>
	<defs>
		<clipPath id="clip3_6884">
			<rect id="applewatch_119991 3" width="48.000000" height="48.000000" fill="white" fill-opacity="0"/>
		</clipPath>
	</defs>
	<rect id="applewatch_119991 3" width="48.000000" height="48.000000" fill="#FFFFFF" fill-opacity="0"/>
	<g clip-path="url(#clip3_6884)">
		<path id="Vector" d="M17 14C15.34 14 14 15.34 14 17L14 31C14 32.65 15.34 34 17 34L31.02 34C32.67 34 34.02 32.65 34.02 31L34.02 17C34.02 15.34 32.67 14 31.02 14L17 14ZM32 35.9L32 41C32 43.76 29.76 46 27 46L21 46C18.23 46 16 43.76 16 41L16 35.9C13.71 35.43 12 33.41 12 31L12 17C12 14.58 13.71 12.56 16 12.1L16 7C16 4.23 18.23 2 21 2L27 2C29.76 2 32 4.23 32 7L32 12.09C34.29 12.54 36.02 14.57 36.02 17L36.02 31C36.02 33.42 34.29 35.45 32 35.9ZM30 36L18 36L18 41C18 42.65 19.34 44 21 44L27 44C28.65 44 30 42.65 30 41L30 36ZM18 12L30 12L30 7C30 5.34 28.65 4 27 4L21 4C19.34 4 18 5.34 18 7L18 12Z" fill="#CCCCCC" fill-opacity="1.000000" fill-rule="nonzero"/>
	</g>
</svg>
