<svg width="32.000000" height="32.000000" viewBox="0 0 32 32" fill="none" xmlns="http://www.w3.org/2000/svg" xmlns:xlink="http://www.w3.org/1999/xlink">
	<defs>
		<clipPath id="clip2_15901">
			<rect id="carbon:overflow-menu-vertical" width="32.000000" height="32.000000" fill="white" fill-opacity="0"/>
		</clipPath>
	</defs>
	<rect id="carbon:overflow-menu-vertical" width="32.000000" height="32.000000" fill="#FFFFFF" fill-opacity="0"/>
	<g clip-path="url(#clip2_15901)">
		<path id="Vector" d="M18 8C18 9.1 17.1 10 16 10C14.89 10 14 9.1 14 8C14 6.89 14.89 6 16 6C17.1 6 18 6.89 18 8Z" fill="#FFFFFF" fill-opacity="1.000000" fill-rule="evenodd"/>
		<path id="Vector" d="M18 16C18 17.1 17.1 18 16 18C14.89 18 14 17.1 14 16C14 14.89 14.89 14 16 14C17.1 14 18 14.89 18 16Z" fill="#FFFFFF" fill-opacity="1.000000" fill-rule="evenodd"/>
		<path id="Vector" d="M18 24C18 25.1 17.1 26 16 26C14.89 26 14 25.1 14 24C14 22.89 14.89 22 16 22C17.1 22 18 22.89 18 24Z" fill="#FFFFFF" fill-opacity="1.000000" fill-rule="evenodd"/>
	</g>
</svg>
