<svg width="24.000000" height="24.000000" viewBox="0 0 24 24" fill="none" xmlns="http://www.w3.org/2000/svg" xmlns:xlink="http://www.w3.org/1999/xlink">
	<desc>
			Created with Pixso.
	</desc>
	<defs>
		<clipPath id="clip178_4930">
			<rect id="ep:close-bold" width="24.000000" height="24.000000" fill="white" fill-opacity="0"/>
		</clipPath>
	</defs>
	<rect id="ep:close-bold" width="24.000000" height="24.000000" fill="#FFFFFF" fill-opacity="0"/>
	<g clip-path="url(#clip178_4930)">
		<path id="Vector" d="M4.57 4.57C4.85 4.29 5.23 4.13 5.63 4.13C6.03 4.13 6.41 4.29 6.69 4.57L12 9.87L17.3 4.57C17.58 4.3 17.96 4.15 18.35 4.15C18.75 4.15 19.12 4.31 19.4 4.59C19.68 4.87 19.84 5.24 19.84 5.64C19.84 6.03 19.69 6.41 19.42 6.69L14.12 12L19.42 17.3C19.69 17.58 19.84 17.96 19.84 18.35C19.84 18.75 19.68 19.12 19.4 19.4C19.12 19.68 18.75 19.84 18.35 19.84C17.96 19.84 17.58 19.69 17.3 19.42L12 14.12L6.69 19.42C6.41 19.69 6.03 19.84 5.64 19.84C5.24 19.84 4.87 19.68 4.59 19.4C4.31 19.12 4.15 18.75 4.15 18.35C4.15 17.96 4.3 17.58 4.57 17.3L9.87 12L4.57 6.69C4.29 6.41 4.13 6.03 4.13 5.63C4.13 5.23 4.29 4.85 4.57 4.57Z" fill="#0071E4" fill-opacity="1.000000" fill-rule="nonzero"/>
	</g>
</svg>
