<svg width="40.000000" height="40.000000" viewBox="0 0 40 40" fill="none" xmlns="http://www.w3.org/2000/svg" xmlns:xlink="http://www.w3.org/1999/xlink">
	<desc>
			Created with Pixso.
	</desc>
	<defs>
		<clipPath id="clip2_15917">
			<rect id="gg:filters" width="40.000000" height="40.000000" fill="white" fill-opacity="0"/>
		</clipPath>
	</defs>
	<rect id="gg:filters" width="40.000000" height="40.000000" fill="#FFFFFF" fill-opacity="0"/>
	<g clip-path="url(#clip2_15917)">
		<path id="Vector" d="M7.84 25.73C9.79 27.1 12.12 27.84 14.5 27.84C15.24 29.84 16.51 31.6 18.17 32.93C19.84 34.26 21.84 35.11 23.95 35.39C26.06 35.66 28.21 35.35 30.16 34.49C32.11 33.63 33.79 32.25 35.01 30.51C36.23 28.76 36.96 26.71 37.1 24.59C37.24 22.46 36.79 20.34 35.81 18.44C34.83 16.55 33.35 14.96 31.53 13.85C29.71 12.75 27.62 12.16 25.49 12.15C24.86 10.43 23.83 8.89 22.49 7.64C21.15 6.39 19.53 5.47 17.78 4.97C16.02 4.46 14.16 4.37 12.36 4.71C10.57 5.05 8.87 5.81 7.42 6.93C5.97 8.04 4.8 9.49 4.01 11.14C3.22 12.79 2.83 14.6 2.87 16.43C2.91 18.26 3.38 20.06 4.25 21.67C5.11 23.29 6.34 24.68 7.84 25.73ZM9.75 23C10.95 23.84 12.35 24.35 13.81 24.47C13.66 21.86 14.39 19.27 15.9 17.12C17.4 14.98 19.58 13.4 22.09 12.65C21.55 11.49 20.75 10.47 19.75 9.67C18.75 8.87 17.59 8.31 16.34 8.04C15.09 7.76 13.8 7.77 12.56 8.08C11.31 8.38 10.16 8.97 9.18 9.79C8.2 10.61 7.43 11.65 6.91 12.82C6.4 13.99 6.16 15.26 6.21 16.53C6.27 17.81 6.62 19.06 7.23 20.18C7.84 21.3 8.71 22.26 9.76 23L9.75 23ZM30.24 16.99C29.04 16.15 27.64 15.64 26.18 15.52C26.33 18.13 25.6 20.72 24.09 22.86C22.59 25.01 20.41 26.59 17.9 27.34C18.44 28.5 19.24 29.52 20.24 30.32C21.24 31.11 22.4 31.67 23.65 31.95C24.9 32.23 26.19 32.21 27.43 31.91C28.68 31.6 29.83 31.02 30.81 30.2C31.79 29.38 32.57 28.34 33.08 27.17C33.59 26 33.83 24.73 33.78 23.45C33.72 22.18 33.37 20.93 32.76 19.81C32.15 18.69 31.28 17.72 30.24 16.99L30.24 16.99Z" fill="#706E6E" fill-opacity="1.000000" fill-rule="evenodd"/>
	</g>
</svg>
