<svg width="48.000000" height="48.000000" viewBox="0 0 48 48" fill="none" xmlns="http://www.w3.org/2000/svg" xmlns:xlink="http://www.w3.org/1999/xlink">
	<desc>
			Created with Pixso.
	</desc>
	<defs>
		<clipPath id="clip3_6875">
			<rect id="ipadh_119979 3" width="48.000000" height="48.000000" fill="white" fill-opacity="0"/>
		</clipPath>
	</defs>
	<rect id="ipadh_119979 3" width="48.000000" height="48.000000" fill="#FFFFFF" fill-opacity="0"/>
	<g clip-path="url(#clip3_6875)">
		<path id="Vector" d="M9 38L39 38C40.65 38 42 36.65 42 35L42 12.97C42 11.32 40.65 9.97 39 9.97L9 9.97C7.34 9.97 6 11.32 6 12.97L6 35C6 36.65 7.34 38 9 38ZM9 40C6.23 40 4 37.76 4 35L4 12.97C4 10.21 6.23 7.97 9 7.97L39 7.97C41.76 7.97 44 10.21 44 12.97L44 35C44 37.76 41.76 40 39 40L9 40ZM38 26C36.89 26 36 25.1 36 24C36 22.89 36.89 22 38 22C39.1 22 40 22.89 40 24C40 25.1 39.1 26 38 26ZM10 27C10 27.55 9.55 28 9 28C8.44 28 8 27.55 8 27L8 21C8 20.44 8.44 20 9 20C9.55 20 10 20.44 10 21L10 27Z" fill="#CCCCCC" fill-opacity="1.000000" fill-rule="nonzero"/>
	</g>
</svg>
