<svg width="48.000000" height="48.000000" viewBox="0 0 48 48" fill="none" xmlns="http://www.w3.org/2000/svg" xmlns:xlink="http://www.w3.org/1999/xlink">
	<desc>
			Created with Pixso.
	</desc>
	<defs>
		<clipPath id="clip3_6878">
			<rect id="macbook_laptop_mac_apple_computer_icon_134097 3" width="48.000000" height="48.000000" fill="white" fill-opacity="0"/>
		</clipPath>
	</defs>
	<rect id="macbook_laptop_mac_apple_computer_icon_134097 3" width="48.000000" height="48.000000" fill="#FFFFFF" fill-opacity="0"/>
	<g clip-path="url(#clip3_6878)">
		<path id="Vector" d="M42.12 34.8L42.12 11.71C42.12 10.96 41.51 10.35 40.76 10.35L7.22 10.35C6.47 10.35 5.86 10.96 5.86 11.71L5.86 34.8L0.49 34.8L0.49 36.32C0.66 36.53 1.54 37.16 3.95 37.1L43.51 37.09C43.51 37.09 46.6 37.13 47.67 36.32L47.67 34.8L42.12 34.8ZM23.99 11.35C24.09 11.35 24.18 11.44 24.18 11.55C24.18 11.65 24.09 11.74 23.99 11.74C23.88 11.74 23.79 11.65 23.79 11.55C23.79 11.44 23.88 11.35 23.99 11.35ZM7.84 12.42L40.13 12.42L40.13 32.76L7.84 32.76L7.84 12.42ZM27.46 35.09C27.46 35.33 27.27 35.51 27.04 35.51L20.67 35.51C20.43 35.51 20.25 35.33 20.25 35.09L20.25 34.82L27.46 34.82L27.46 35.09ZM44.85 35.61L43.22 35.61C43.19 35.61 43.17 35.58 43.17 35.56C43.17 35.53 43.19 35.5 43.22 35.5L44.85 35.5C44.88 35.5 44.9 35.53 44.9 35.56C44.9 35.58 44.88 35.61 44.85 35.61Z" fill="#CCCCCC" fill-opacity="1.000000" fill-rule="nonzero"/>
	</g>
</svg>
