<svg width="15.000000" height="19.000000" viewBox="0 0 15 19" fill="none" xmlns="http://www.w3.org/2000/svg" xmlns:xlink="http://www.w3.org/1999/xlink">
	<defs/>
	<path id="Vector" d="M5.13 7.53L6.74 6.06C7.18 5.65 7.49 5.12 7.63 4.54C7.77 3.96 7.73 3.35 7.52 2.79L6.83 0.96C6.58 0.27 6.07 -0.29 5.41 -0.61C4.76 -0.94 4 -1 3.3 -0.78C0.73 0 -1.25 2.4 -0.64 5.24C-0.24 7.11 0.53 9.45 1.98 11.95C3.43 14.45 5.09 16.3 6.52 17.6C8.67 19.56 11.75 19.07 13.72 17.22C14.25 16.73 14.58 16.05 14.62 15.32C14.67 14.6 14.44 13.89 13.98 13.33L12.72 11.8C12.34 11.33 11.83 11 11.26 10.83C10.68 10.65 10.07 10.66 9.5 10.84L7.42 11.5C6.88 10.94 6.41 10.33 6.01 9.66C5.63 8.99 5.34 8.27 5.13 7.53L5.13 7.53Z" fill="#B7B7B7" fill-opacity="1.000000" fill-rule="nonzero"/>
</svg>
