<svg width="16" height="20" viewBox="0 0 16 20" fill="none" xmlns="http://www.w3.org/2000/svg">
<path d="M6.13393 8.536L7.74493 7.06C8.18543 6.65563 8.49504 6.12885 8.63402 5.54727C8.773 4.96569 8.73501 4.35584 8.52493 3.796L7.83793 1.9615C7.58127 1.27663 7.07315 0.715375 6.41709 0.392084C5.76103 0.0687939 5.0064 0.00778988 4.30693 0.221501C1.73293 1.009 -0.245567 3.4015 0.363433 6.2425C0.763933 8.1115 1.53043 10.4575 2.98243 12.9535C4.43743 15.4555 6.09943 17.3035 7.52443 18.6025C9.67543 20.56 12.7504 20.071 14.7289 18.226C15.2593 17.7315 15.5811 17.0534 15.6288 16.3298C15.6764 15.6063 15.4463 14.8918 14.9854 14.332L13.7254 12.802C13.3454 12.3393 12.8356 12.0009 12.2617 11.8304C11.6878 11.6598 11.0759 11.6649 10.5049 11.845L8.42293 12.5005C7.88526 11.9456 7.41408 11.33 7.01893 10.666C6.63753 9.99454 6.34029 9.27864 6.13393 8.5345V8.536Z" fill="#B7B7B7"/>
</svg>
