<svg width="16.000000" height="16.000000" viewBox="0 0 16 16" fill="none" xmlns="http://www.w3.org/2000/svg" xmlns:xlink="http://www.w3.org/1999/xlink">
	<defs/>
	<path id="Vector" d="M-0.43 -0.43C-0.15 -0.71 0.23 -0.87 0.63 -0.87C1.03 -0.87 1.41 -0.71 1.69 -0.43L7 4.87L12.3 -0.43C12.58 -0.7 12.96 -0.85 13.35 -0.85C13.75 -0.85 14.12 -0.69 14.4 -0.41C14.68 -0.13 14.84 0.24 14.84 0.64C14.84 1.03 14.69 1.41 14.42 1.69L9.12 7L14.42 12.3C14.69 12.58 14.84 12.96 14.84 13.35C14.84 13.75 14.68 14.12 14.4 14.4C14.12 14.68 13.75 14.84 13.35 14.84C12.96 14.84 12.58 14.69 12.3 14.42L7 9.12L1.69 14.42C1.41 14.69 1.03 14.84 0.64 14.84C0.24 14.84 -0.13 14.68 -0.41 14.4C-0.69 14.12 -0.85 13.75 -0.85 13.35C-0.85 12.96 -0.7 12.58 -0.43 12.3L4.87 7L-0.43 1.69C-0.71 1.41 -0.87 1.03 -0.87 0.63C-0.87 0.23 -0.71 -0.15 -0.43 -0.43Z" fill="#878787" fill-opacity="1.000000" fill-rule="nonzero"/>
</svg>
