<svg width="16" height="16" viewBox="0 0 16 16" fill="none" xmlns="http://www.w3.org/2000/svg">
<path d="M0.574922 0.575C0.856213 0.293793 1.23768 0.13582 1.63542 0.13582C2.03317 0.13582 2.41463 0.293793 2.69592 0.575L7.99992 5.879L13.3039 0.575C13.5868 0.301763 13.9657 0.150571 14.359 0.153989C14.7523 0.157407 15.1285 0.31516 15.4066 0.593272C15.6848 0.871384 15.8425 1.2476 15.8459 1.6409C15.8493 2.03419 15.6982 2.4131 15.4249 2.696L10.1209 8L15.4249 13.304C15.6982 13.5869 15.8493 13.9658 15.8459 14.3591C15.8425 14.7524 15.6848 15.1286 15.4066 15.4067C15.1285 15.6848 14.7523 15.8426 14.359 15.846C13.9657 15.8494 13.5868 15.6982 13.3039 15.425L7.99992 10.121L2.69592 15.425C2.41302 15.6982 2.03412 15.8494 1.64082 15.846C1.24752 15.8426 0.871306 15.6848 0.593194 15.4067C0.315082 15.1286 0.157328 14.7524 0.153911 14.3591C0.150493 13.9658 0.301685 13.5869 0.574922 13.304L5.87892 8L0.574922 2.696C0.293715 2.41471 0.135742 2.03325 0.135742 1.6355C0.135742 1.23775 0.293715 0.856291 0.574922 0.575Z" fill="#878787"/>
</svg>
