<svg width="16" height="16" viewBox="0 0 16 16" fill="none" xmlns="http://www.w3.org/2000/svg">
<path d="M0.574922 0.574922C0.856213 0.293715 1.23768 0.135742 1.63542 0.135742C2.03317 0.135742 2.41463 0.293715 2.69592 0.574922L7.99992 5.87892L13.3039 0.574922C13.5868 0.301685 13.9657 0.150493 14.359 0.153911C14.7523 0.157328 15.1285 0.315082 15.4066 0.593194C15.6848 0.871306 15.8425 1.24752 15.8459 1.64082C15.8493 2.03412 15.6982 2.41302 15.4249 2.69592L10.1209 7.99992L15.4249 13.3039C15.6982 13.5868 15.8493 13.9657 15.8459 14.359C15.8425 14.7523 15.6848 15.1285 15.4066 15.4066C15.1285 15.6848 14.7523 15.8425 14.359 15.8459C13.9657 15.8493 13.5868 15.6982 13.3039 15.4249L7.99992 10.1209L2.69592 15.4249C2.41302 15.6982 2.03412 15.8493 1.64082 15.8459C1.24752 15.8425 0.871306 15.6848 0.593194 15.4066C0.315082 15.1285 0.157328 14.7523 0.153911 14.359C0.150493 13.9657 0.301685 13.5868 0.574922 13.3039L5.87892 7.99992L0.574922 2.69592C0.293715 2.41463 0.135742 2.03317 0.135742 1.63542C0.135742 1.23768 0.293715 0.856213 0.574922 0.574922Z" fill="#F9F9F9"/>
</svg>
