<svg width="32.000000" height="32.000000" viewBox="0 0 32 32" fill="none" xmlns="http://www.w3.org/2000/svg" xmlns:xlink="http://www.w3.org/1999/xlink">
	<defs/>
	<rect id="Rectangle 10" rx="16.000000" width="32.000000" height="32.000000" fill="#C0E6FF" fill-opacity="1.000000"/>
	<path id="?" d="M15.78 18.81L13.75 18.81L13.75 18.68C13.76 16.04 14.54 15.24 15.86 14.43C16.71 13.9 17.37 13.16 17.37 12.1C17.37 10.84 16.39 10.04 15.18 10.04C14.09 10.04 13.02 10.7 12.93 12.21L10.78 12.21C10.87 9.65 12.79 8.25 15.18 8.25C17.79 8.25 19.53 9.81 19.53 12.12C19.53 13.72 18.75 14.8 17.48 15.57C16.27 16.31 15.81 17.04 15.78 18.68L15.78 18.81ZM16.24 21.71C16.24 22.5 15.59 23.13 14.82 23.13C14.04 23.13 13.4 22.5 13.4 21.71C13.4 20.93 14.04 20.29 14.82 20.29C15.59 20.29 16.24 20.93 16.24 21.71Z" fill="#0071E4" fill-opacity="1.000000" fill-rule="evenodd"/>
</svg>
