<svg width="24.000000" height="20.800049" viewBox="0 0 24 20.8" fill="none" xmlns="http://www.w3.org/2000/svg" xmlns:xlink="http://www.w3.org/1999/xlink">
	<defs/>
	<path id="Vector" d="M5 19.29C4.07 19.29 3.18 18.93 2.52 18.27C1.86 17.61 1.5 16.72 1.5 15.8C1.5 14.87 1.86 13.98 2.52 13.32C3.18 12.66 4.07 12.3 5 12.3C5.92 12.3 6.81 12.66 7.47 13.32C8.13 13.98 8.5 14.87 8.5 15.8C8.5 16.72 8.13 17.61 7.47 18.27C6.81 18.93 5.92 19.29 5 19.29ZM5 10.8C3.67 10.8 2.4 11.32 1.46 12.26C0.52 13.2 0 14.47 0 15.8C0 17.12 0.52 18.39 1.46 19.33C2.4 20.27 3.67 20.8 5 20.8C6.32 20.8 7.59 20.27 8.53 19.33C9.47 18.39 10 17.12 10 15.8C10 14.47 9.47 13.2 8.53 12.26C7.59 11.32 6.32 10.8 5 10.8ZM14.79 8.8L19 8.8L19 7L15.79 7L13.86 3.72C13.57 3.22 13 2.89 12.4 2.89C11.92 2.89 11.5 3.09 11.2 3.39L7.5 7.09C7.19 7.39 7 7.8 7 8.3C7 8.92 7.33 9.45 7.84 9.77L11.2 11.8L11.2 16.79L13 16.79L13 10.3L10.75 8.64L13.07 6.3L14.79 8.8ZM19 19.29C18.07 19.29 17.18 18.93 16.52 18.27C15.86 17.61 15.5 16.72 15.5 15.8C15.5 14.87 15.86 13.98 16.52 13.32C17.18 12.66 18.07 12.3 19 12.3C19.92 12.3 20.81 12.66 21.47 13.32C22.13 13.98 22.5 14.87 22.5 15.8C22.5 16.72 22.13 17.61 21.47 18.27C20.81 18.93 19.92 19.29 19 19.29ZM19 10.8C17.67 10.8 16.4 11.32 15.46 12.26C14.52 13.2 14 14.47 14 15.8C14 17.12 14.52 18.39 15.46 19.33C16.4 20.27 17.67 20.8 19 20.8C19.65 20.8 20.3 20.67 20.91 20.41C21.52 20.16 22.07 19.79 22.53 19.33C23 18.87 23.36 18.32 23.61 17.71C23.87 17.1 24 16.45 24 15.8C24 15.14 23.87 14.49 23.61 13.88C23.36 13.28 23 12.72 22.53 12.26C22.07 11.8 21.52 11.43 20.91 11.18C20.3 10.92 19.65 10.8 19 10.8ZM16 3.6C17 3.6 17.79 2.8 17.79 1.8C17.79 0.8 17 0 16 0C15 0 14.2 0.8 14.2 1.8C14.2 2.8 15 3.6 16 3.6Z" fill="#121212" fill-opacity="0.500000" fill-rule="nonzero"/>
</svg>
