<svg width="20.000000" height="20.000000" viewBox="0 0 20 20" fill="none" xmlns="http://www.w3.org/2000/svg" xmlns:xlink="http://www.w3.org/1999/xlink">
	<defs/>
	<path id="Vector" d="M15 13.22C15 14.2 14.2 15 13.21 15C12.24 15 11.45 14.2 11.45 13.22C11.45 12.24 12.24 11.45 13.21 11.45C14.2 11.45 15 12.24 15 13.22ZM6.83 8.6C7.8 8.6 8.59 7.81 8.59 6.83C8.59 5.84 7.8 5.05 6.83 5.05C5.83 5.05 5.04 5.84 5.04 6.83C5.04 7.81 5.83 8.6 6.83 8.6ZM5 13.53L6.5 15.03L15.03 6.5L13.53 5L5 13.53ZM20 10C20 15.5 15.5 20 10 20C4.5 20 0 15.5 0 10C0 4.5 4.5 0 10 0C15.5 0 20 4.5 20 10ZM18 10C18 5.59 14.41 2 10 2C5.58 2 2 5.59 2 10C2 14.4 5.58 18 10 18C14.41 18 18 14.4 18 10Z" fill="#1877F2" fill-opacity="1.000000" fill-rule="nonzero"/>
</svg>
