<svg width="24.000000" height="24.000000" viewBox="0 0 24 24" fill="none" xmlns="http://www.w3.org/2000/svg" xmlns:xlink="http://www.w3.org/1999/xlink">
	<defs>
		<clipPath id="clip14_11984">
			<rect id="ic:baseline-shopping-bag" width="24.000000" height="24.000000" fill="white" fill-opacity="0"/>
		</clipPath>
	</defs>
	<rect id="ic:baseline-shopping-bag" width="24.000000" height="24.000000" fill="#FFFFFF" fill-opacity="0"/>
	<g clip-path="url(#clip14_11984)">
		<path id="Vector" d="M18 6L16 6C16 3.79 14.21 2 12 2C9.79 2 8 3.79 8 6L6 6C4.9 6 4 6.89 4 8L4 20C4 21.1 4.9 22 6 22L18 22C19.09 22 20 21.1 20 20L20 8C20 6.89 19.09 6 18 6ZM10 10C10 10.55 9.54 11 9 11C8.45 11 8 10.55 8 10L8 8L10 8L10 10ZM12 4C13.09 4 14 4.89 14 6L10 6C10 4.89 10.9 4 12 4ZM16 10C16 10.55 15.54 11 15 11C14.45 11 14 10.55 14 10L14 8L16 8L16 10Z" fill="#121212" fill-opacity="0.500000" fill-rule="nonzero"/>
	</g>
</svg>
