<svg width="24.000000" height="24.000000" viewBox="0 0 24 24" fill="none" xmlns="http://www.w3.org/2000/svg" xmlns:xlink="http://www.w3.org/1999/xlink">
	<defs>
		<clipPath id="clip14_11986">
			<rect id="mdi:truck-delivery" width="24.000000" height="24.000000" fill="white" fill-opacity="0"/>
		</clipPath>
	</defs>
	<rect id="mdi:truck-delivery" width="24.000000" height="24.000000" fill="#FFFFFF" fill-opacity="0"/>
	<g clip-path="url(#clip14_11986)">
		<path id="Vector" d="M3 4C2.46 4 1.96 4.21 1.58 4.58C1.21 4.96 1 5.46 1 6L1 17L3 17C3 17.79 3.31 18.55 3.87 19.12C4.44 19.68 5.2 20 6 20C6.79 20 7.55 19.68 8.12 19.12C8.68 18.55 9 17.79 9 17L15 17C15 17.79 15.31 18.55 15.87 19.12C16.44 19.68 17.2 20 18 20C18.79 20 19.55 19.68 20.12 19.12C20.68 18.55 21 17.79 21 17L23 17L23 12L20 8L17 8L17 4L3 4ZM10 6L14 10L10 14L10 11L4 11L4 9L10 9L10 6ZM17 9.5L19.5 9.5L21.46 12L17 12L17 9.5ZM6 15.5C6.39 15.5 6.77 15.65 7.06 15.93C7.34 16.22 7.5 16.6 7.5 17C7.5 17.39 7.34 17.77 7.06 18.06C6.77 18.34 6.39 18.5 6 18.5C5.6 18.5 5.22 18.34 4.93 18.06C4.65 17.77 4.5 17.39 4.5 17C4.5 16.6 4.65 16.22 4.93 15.93C5.22 15.65 5.6 15.5 6 15.5ZM18 15.5C18.39 15.5 18.77 15.65 19.06 15.93C19.34 16.22 19.5 16.6 19.5 17C19.5 17.39 19.34 17.77 19.06 18.06C18.77 18.34 18.39 18.5 18 18.5C17.6 18.5 17.22 18.34 16.93 18.06C16.65 17.77 16.5 17.39 16.5 17C16.5 16.6 16.65 16.22 16.93 15.93C17.22 15.65 17.6 15.5 18 15.5Z" fill="#121212" fill-opacity="0.500000" fill-rule="nonzero"/>
	</g>
</svg>
