<svg width="24.000000" height="27.000000" viewBox="0 0 24 27" fill="none" xmlns="http://www.w3.org/2000/svg" xmlns:xlink="http://www.w3.org/1999/xlink">
	<desc>
			Created with Pixso.
	</desc>
	<defs/>
	<path id="Vector" d="M4.66 -0.34L19.33 -0.34C19.54 -0.34 19.74 -0.29 19.92 -0.2C20.11 -0.11 20.27 0.03 20.39 0.19L24 5L24 25C24 25.35 23.85 25.69 23.6 25.94C23.35 26.19 23.02 26.33 22.66 26.33L1.33 26.33C0.97 26.33 0.64 26.19 0.39 25.94C0.14 25.69 0 25.35 0 25L0 5L3.6 0.19C3.72 0.03 3.88 -0.11 4.07 -0.2C4.25 -0.29 4.45 -0.34 4.66 -0.34ZM20.66 5L18.66 2.33L5.33 2.33L3.33 5L20.66 5ZM8 10.33L5.33 10.33L5.33 13C5.33 14.76 6.03 16.46 7.28 17.71C8.53 18.96 10.23 19.66 12 19.66C13.76 19.66 15.46 18.96 16.71 17.71C17.96 16.46 18.66 14.76 18.66 13L18.66 10.33L16 10.33L16 13C16 14.06 15.57 15.07 14.82 15.82C14.07 16.57 13.06 17 12 17C10.93 17 9.92 16.57 9.17 15.82C8.42 15.07 8 14.06 8 13L8 10.33Z" fill="#706E6E" fill-opacity="1.000000" fill-rule="nonzero"/>
</svg>
