<svg width="25.000000" height="23.000000" viewBox="0 0 25 23" fill="none" xmlns="http://www.w3.org/2000/svg" xmlns:xlink="http://www.w3.org/1999/xlink">
	<desc>
			Created with Pixso.
	</desc>
	<defs/>
	<path id="Vector" d="M-0.81 7.79C-0.81 7.37 -0.64 6.96 -0.34 6.66C-0.04 6.36 0.37 6.19 0.8 6.19L17.29 6.19C17.71 6.19 18.12 6.36 18.42 6.66C18.72 6.96 18.89 7.37 18.89 7.79C18.89 8.22 18.72 8.63 18.42 8.93C18.12 9.23 17.71 9.39 17.29 9.39L0.8 9.39C0.37 9.39 -0.04 9.23 -0.34 8.93C-0.64 8.63 -0.81 8.22 -0.81 7.79ZM-0.81 1.39C-0.81 0.97 -0.64 0.56 -0.34 0.26C-0.04 -0.04 0.37 -0.21 0.8 -0.21L23.2 -0.21C23.62 -0.21 24.03 -0.04 24.33 0.26C24.63 0.56 24.8 0.97 24.8 1.39C24.8 1.82 24.63 2.23 24.33 2.53C24.03 2.83 23.62 3 23.2 3L0.8 3C0.37 3 -0.04 2.83 -0.34 2.53C-0.64 2.23 -0.81 1.82 -0.81 1.39ZM-0.81 14.19C-0.81 13.77 -0.64 13.36 -0.34 13.06C-0.04 12.76 0.37 12.59 0.8 12.59L23.2 12.59C23.62 12.59 24.03 12.76 24.33 13.06C24.63 13.36 24.8 13.77 24.8 14.19C24.8 14.62 24.63 15.03 24.33 15.33C24.03 15.63 23.62 15.79 23.2 15.79L0.8 15.79C0.37 15.79 -0.04 15.63 -0.34 15.33C-0.64 15.03 -0.81 14.62 -0.81 14.19ZM-0.81 20.59C-0.81 20.17 -0.64 19.76 -0.34 19.46C-0.04 19.16 0.37 19 0.8 19L17.29 19C17.71 19 18.12 19.16 18.42 19.46C18.72 19.76 18.89 20.17 18.89 20.59C18.89 21.02 18.72 21.43 18.42 21.73C18.12 22.03 17.71 22.19 17.29 22.19L0.8 22.19C0.37 22.19 -0.04 22.03 -0.34 21.73C-0.64 21.43 -0.81 21.02 -0.81 20.59Z" fill="#706E6E" fill-opacity="1.000000" fill-rule="evenodd"/>
</svg>
