<svg width="27.000000" height="25.000000" viewBox="0 0 27 25" fill="none" xmlns="http://www.w3.org/2000/svg" xmlns:xlink="http://www.w3.org/1999/xlink">
	<desc>
			Created with Pixso.
	</desc>
	<defs/>
	<path id="Vector" d="M3.27 16.58C4.83 17.68 6.69 18.27 8.6 18.27C9.19 19.87 10.2 21.28 11.54 22.34C12.87 23.41 14.47 24.09 16.16 24.31C17.85 24.53 19.57 24.28 21.13 23.59C22.69 22.9 24.03 21.8 25.01 20.41C25.99 19.01 26.56 17.37 26.68 15.67C26.79 13.97 26.43 12.27 25.65 10.75C24.86 9.24 23.68 7.97 22.22 7.08C20.76 6.2 19.09 5.72 17.39 5.72C16.88 4.34 16.06 3.11 14.99 2.11C13.92 1.11 12.63 0.38 11.22 -0.03C9.81 -0.44 8.33 -0.5 6.89 -0.23C5.45 0.04 4.1 0.65 2.94 1.54C1.77 2.43 0.84 3.59 0.21 4.91C-0.42 6.23 -0.74 7.68 -0.7 9.15C-0.67 10.61 -0.29 12.05 0.4 13.34C1.09 14.63 2.07 15.74 3.27 16.58ZM4.8 14.4C5.76 15.07 6.88 15.48 8.04 15.58C7.92 13.48 8.51 11.41 9.72 9.7C10.92 7.98 12.66 6.72 14.67 6.12C14.24 5.19 13.6 4.38 12.8 3.74C12 3.1 11.07 2.65 10.07 2.43C9.07 2.21 8.04 2.22 7.04 2.46C6.05 2.7 5.13 3.17 4.34 3.83C3.56 4.49 2.94 5.32 2.53 6.25C2.12 7.19 1.92 8.21 1.97 9.23C2.01 10.25 2.29 11.25 2.78 12.14C3.27 13.04 3.97 13.81 4.8 14.4L4.8 14.4ZM21.19 9.59C20.23 8.92 19.11 8.51 17.95 8.41C18.07 10.5 17.48 12.57 16.27 14.29C15.07 16.01 13.33 17.27 11.32 17.87C11.75 18.8 12.39 19.61 13.19 20.25C13.99 20.89 14.92 21.34 15.92 21.56C16.92 21.78 17.95 21.77 18.95 21.53C19.94 21.28 20.86 20.81 21.65 20.16C22.43 19.5 23.05 18.67 23.46 17.74C23.87 16.8 24.07 15.78 24.02 14.76C23.98 13.74 23.7 12.74 23.21 11.85C22.72 10.95 22.02 10.18 21.19 9.59L21.19 9.59Z" fill="#706E6E" fill-opacity="1.000000" fill-rule="evenodd"/>
</svg>
