<svg width="32.000000" height="32.000000" viewBox="0 0 32 32" fill="none" xmlns="http://www.w3.org/2000/svg" xmlns:xlink="http://www.w3.org/1999/xlink">
	<desc>
			Created with Pixso.
	</desc>
	<defs>
		<clipPath id="clip5_6377">
			<rect id="ant-design:whats-app-outlined" width="24.380953" height="24.380953" transform="translate(3.047852 3.047852)" fill="white" fill-opacity="0"/>
		</clipPath>
		<clipPath id="clip5_6378">
			<rect id="wa'" rx="6.095238" width="32.000000" height="32.000000" fill="white" fill-opacity="0"/>
		</clipPath>
	</defs>
	<rect id="wa'" rx="6.095238" width="32.000000" height="32.000000" fill="#2CB742" fill-opacity="1.000000"/>
	<g clip-path="url(#clip5_6378)">
		<rect id="ant-design:whats-app-outlined" width="24.380953" height="24.380953" transform="translate(3.047852 3.047852)" fill="#FFFFFF" fill-opacity="0"/>
		<g clip-path="url(#clip5_6377)">
			<path id="Vector" d="M20.03 17.33C19.77 17.19 18.48 16.56 18.24 16.47C18 16.38 17.82 16.34 17.65 16.61C17.47 16.87 16.97 17.46 16.81 17.64C16.66 17.81 16.51 17.84 16.25 17.7C14.7 16.93 13.69 16.33 12.68 14.58C12.41 14.12 12.95 14.15 13.45 13.15C13.53 12.97 13.49 12.82 13.42 12.69C13.36 12.56 12.83 11.27 12.61 10.74C12.4 10.23 12.18 10.3 12.02 10.29C11.87 10.28 11.7 10.28 11.52 10.28C11.35 10.28 11.06 10.35 10.82 10.61C10.58 10.87 9.9 11.51 9.9 12.8C9.9 14.09 10.84 15.34 10.97 15.51C11.1 15.69 12.82 18.34 15.46 19.48C17.12 20.2 17.78 20.26 18.61 20.14C19.12 20.06 20.16 19.5 20.38 18.89C20.6 18.27 20.6 17.75 20.53 17.64C20.47 17.52 20.29 17.45 20.03 17.33Z" fill="#FFFFFF" fill-opacity="1.000000" fill-rule="nonzero"/>
			<path id="Vector" d="M25.07 11.1C24.53 9.82 23.76 8.67 22.78 7.69C21.79 6.7 20.65 5.93 19.37 5.39C18.06 4.85 16.67 4.57 15.23 4.57L15.19 4.57C13.74 4.57 12.35 4.86 11.03 5.42C9.76 5.96 8.62 6.74 7.65 7.72C6.68 8.7 5.91 9.85 5.38 11.12C4.84 12.44 4.56 13.84 4.57 15.28C4.57 16.94 4.97 18.58 5.71 20.04L5.71 23.66C5.71 24.27 6.2 24.76 6.8 24.76L10.43 24.76C11.89 25.5 13.53 25.89 15.19 25.9L15.24 25.9C16.66 25.9 18.04 25.62 19.35 25.08C20.62 24.55 21.77 23.79 22.75 22.82C23.73 21.84 24.5 20.7 25.04 19.44C25.61 18.12 25.89 16.72 25.9 15.28C25.91 13.83 25.63 12.42 25.07 11.1ZM21.47 21.53C19.8 23.18 17.59 24.09 15.23 24.09L15.19 24.09C13.76 24.08 12.33 23.73 11.07 23.05L10.87 22.95L7.52 22.95L7.52 19.6L7.41 19.39C6.74 18.14 6.38 16.71 6.38 15.27C6.37 12.9 7.27 10.67 8.94 8.99C10.6 7.31 12.82 6.39 15.2 6.38L15.24 6.38C16.43 6.38 17.58 6.61 18.67 7.06C19.73 7.51 20.68 8.15 21.5 8.97C22.32 9.79 22.96 10.74 23.41 11.8C23.87 12.9 24.1 14.07 24.1 15.27C24.08 17.64 23.15 19.87 21.47 21.53Z" fill="#FFFFFF" fill-opacity="1.000000" fill-rule="nonzero"/>
		</g>
	</g>
</svg>
