<svg width="24.000000" height="24.000000" viewBox="0 0 24 24" fill="none" xmlns="http://www.w3.org/2000/svg" xmlns:xlink="http://www.w3.org/1999/xlink">
	<defs>
		<clipPath id="clip142_1823">
			<rect id="bx:time" width="24.000000" height="24.000000" fill="white" fill-opacity="0"/>
		</clipPath>
	</defs>
	<rect id="bx:time" width="24.000000" height="24.000000" fill="#FFFFFF" fill-opacity="0"/>
	<g clip-path="url(#clip142_1823)">
		<path id="Vector" d="M12 2C6.48 2 2 6.48 2 12C2 17.51 6.48 22 12 22C17.51 22 22 17.51 22 12C22 6.48 17.51 2 12 2ZM12 20C7.58 20 4 16.41 4 12C4 7.58 7.58 4 12 4C16.41 4 20 7.58 20 12C20 16.41 16.41 20 12 20Z" fill="#878787" fill-opacity="1.000000" fill-rule="nonzero"/>
		<path id="Vector" d="M13 7L11 7L11 13L17 13L17 11L13 11L13 7Z" fill="#878787" fill-opacity="1.000000" fill-rule="nonzero"/>
	</g>
</svg>
